<svg width="26" height="26" viewBox="0 0 26 26" fill="none"
  xmlns="http://www.w3.org/2000/svg">
  <path d="M13.0015 1.11728e-06C5.81812 -0.00298259 0 5.97039 0 13.3431C0 19.1733 3.63959 24.1292 8.7083 25.9493C9.39091 26.1253 9.28634 25.627 9.28634 25.2869V22.9745C5.34466 23.4489 5.1849 20.7696 4.92057 20.322C4.3861 19.3851 3.12256 19.1464 3.50017 18.6989C4.39772 18.2245 5.3127 18.8182 6.37292 20.4264C7.13976 21.5931 8.63568 21.3961 9.39381 21.2022C9.55938 20.501 9.91375 19.8745 10.4017 19.3881C6.31773 18.6362 4.61557 16.0762 4.61557 13.0328C4.61557 11.5559 5.08904 10.1983 6.01855 9.10328C5.42599 7.29814 6.07374 5.75258 6.16088 5.52284C7.84851 5.36768 9.60295 6.76406 9.73947 6.87446C10.698 6.60891 11.7931 6.46867 13.0189 6.46867C14.2505 6.46867 15.3485 6.61487 16.3157 6.88341C16.644 6.62681 18.2706 5.42736 19.8391 5.57356C19.9234 5.80331 20.5566 7.31306 19.9989 9.09433C20.94 10.1923 21.4193 11.5619 21.4193 13.0418C21.4193 16.0911 19.7055 18.6541 15.6099 19.3941C15.9607 19.7484 16.2392 20.1711 16.4292 20.6373C16.6193 21.1034 16.7169 21.6039 16.7166 22.1092V25.4659C16.7398 25.7344 16.7166 26 17.1523 26C22.2965 24.2187 26 19.227 26 13.3461C26 5.97039 20.179 1.11728e-06 13.0015 1.11728e-06Z" fill="black"/>
</svg>
