<svg width="26" height="26" viewBox="0 0 26 26" fill="none"
  xmlns="http://www.w3.org/2000/svg">
  <path d="M24.96 0H1.04C0.46475 0 0 0.46475 0 1.04V24.96C0 25.5352 0.46475 26 1.04 26H24.96C25.5352 26 26 25.5352 26 24.96V1.04C26 0.46475 25.5352 0 24.96 0ZM7.71225 22.1552H3.8545V9.74675H7.71225V22.1552ZM5.785 8.05025C5.34276 8.05025 4.91045 7.91911 4.54274 7.67342C4.17504 7.42772 3.88844 7.07851 3.71921 6.66993C3.54997 6.26135 3.50569 5.81177 3.59196 5.37803C3.67824 4.94429 3.8912 4.54587 4.20391 4.23316C4.51662 3.92045 4.91504 3.70749 5.34878 3.62121C5.78252 3.53494 6.2321 3.57922 6.64068 3.74846C7.04926 3.91769 7.39847 4.20429 7.64417 4.57199C7.88986 4.9397 8.021 5.37201 8.021 5.81425C8.01775 7.04925 7.01675 8.05025 5.785 8.05025ZM22.1552 22.1552H18.3007V16.12C18.3007 14.6802 18.2747 12.831 16.2955 12.831C14.2902 12.831 13.9815 14.3975 13.9815 16.016V22.1552H10.1302V9.74675H13.8287V11.4432H13.8807C14.3942 10.4683 15.652 9.438 17.5305 9.438C21.437 9.438 22.1552 12.0087 22.1552 15.3497V22.1552Z" fill="black"/>
</svg>
