<svg width="26" height="26" viewBox="0 0 26 26" fill="none"
  xmlns="http://www.w3.org/2000/svg">
  <path d="M24.96 0H1.04C0.46475 0 0 0.46475 0 1.04V24.96C0 25.5352 0.46475 26 1.04 26H24.96C25.5352 26 26 25.5352 26 24.96V1.04C26 0.46475 25.5352 0 24.96 0ZM19.9972 9.41525C20.007 9.568 20.007 9.72725 20.007 9.88325C20.007 14.6543 16.3735 20.15 9.73375 20.15C7.68625 20.15 5.78825 19.5553 4.18925 18.5315C4.48175 18.564 4.76125 18.577 5.06025 18.577C6.75025 18.577 8.30375 18.005 9.542 17.0365C7.956 17.004 6.6235 15.964 6.1685 14.534C6.72425 14.6152 7.22475 14.6152 7.79675 14.469C6.98011 14.3031 6.24609 13.8596 5.7194 13.2138C5.19271 12.568 4.90583 11.7598 4.9075 10.9265V10.881C5.38525 11.1507 5.9475 11.3165 6.53575 11.3392C6.04124 11.0097 5.63569 10.5632 5.35506 10.0393C5.07443 9.51551 4.9274 8.93052 4.927 8.33625C4.927 7.6635 5.1025 7.04925 5.41775 6.51625C6.32418 7.63209 7.45527 8.54471 8.73751 9.19479C10.0197 9.84486 11.4244 10.2178 12.8602 10.2895C12.35 7.83575 14.183 5.85 16.3865 5.85C17.4265 5.85 18.3625 6.2855 19.0222 6.9875C19.838 6.83475 20.618 6.52925 21.3135 6.11975C21.0437 6.955 20.4782 7.66025 19.7275 8.1055C20.4555 8.0275 21.1575 7.826 21.8075 7.54325C21.3167 8.26475 20.7025 8.905 19.9972 9.41525Z" fill="black"/>
</svg>
